<svg xmlns="http://www.w3.org/2000/svg" version="1.0" width="512.000000pt" height="512.000000pt" viewBox="0 0 512.000000 512.000000" preserveAspectRatio="xMidYMid meet">

<g transform="translate(0.000000,512.000000) scale(0.100000,-0.100000)" fill="#ffffff" stroke="none">
<path d="M2349 4034 c-382 -69 -705 -310 -869 -648 -27 -56 -60 -139 -73 -186 l-25 -85 -83 -6 c-177 -12 -319 -78 -450 -209 -71 -71 -94 -101 -133 -180 -101 -205 -101 -409 1 -619 79 -164 233 -296 418 -359 l80 -27 513 -3 512 -3 0 106 0 105 -467 0 c-382 0 -480 3 -532 15 -344 81 -499 485 -292 760 111 147 245 205 476 205 l131 0 31 140 c90 398 342 666 723 768 83 22 115 25 250 25 135 0 167 -3 251 -25 235 -63 447 -212 573 -402 21 -32 60 -104 87 -160 l48 -103 108 -6 c123 -7 202 -25 288 -66 269 -127 406 -420 328 -701 -44 -159 -165 -306 -314 -379 -103 -51 -193 -71 -324 -71 l-100 0 -29 -55 c-15 -30 -44 -76 -62 -102 l-34 -48 177 -3 c128 -2 198 2 250 12 320 67 567 299 649 611 28 105 25 294 -5 400 -93 330 -357 557 -703 606 l-90 13 -25 51 c-165 324 -497 565 -870 630 -105 18 -311 18 -414 -1z" fill="#ffffff"/>
<path d="M2388 3180 c-180 -38 -369 -156 -480 -301 -56 -73 -130 -215 -142 -274 l-7 -31 93 -22 c51 -13 97 -23 102 -23 5 0 19 26 31 58 85 233 318 395 570 397 112 1 177 -15 285 -67 145 -70 265 -213 316 -374 8 -26 17 -88 20 -138 12 -184 -47 -336 -181 -470 -127 -128 -266 -184 -452 -185 l-83 0 0 -235 0 -235 105 0 104 0 3 132 3 131 60 13 c323 65 588 340 645 668 16 86 8 281 -14 361 -116 424 -547 686 -978 595z" fill="#ffffff"/>
<path d="M2454 1057 c-2 -7 -3 -56 -2 -108 l3 -94 105 0 105 0 0 105 0 105 -103 3 c-79 2 -104 0 -108 -11z" fill="#ffffff"/>
</g>
</svg>